<svg xmlns="http://www.w3.org/2000/svg" width="512" height="512" viewBox="0 0 59.002 59.002">
	<g xmlns="http://www.w3.org/2000/svg">
		<path
			d="M27.845 34.002c0-3.859-3.141-7-7-7s-7 3.141-7 7 3.141 7 7 7 7-3.141 7-7zm-7 5c-2.757 0-5-2.243-5-5s2.243-5 5-5 5 2.243 5 5-2.243 5-5 5z"
			fill="#002558" data-original="#000000" />
		<circle cx="18.845" cy="32.002" r="2" fill="#002558" data-original="#000000" />
		<path
			d="M38.845 27.002c-3.859 0-7 3.141-7 7s3.141 7 7 7 7-3.141 7-7-3.141-7-7-7zm0 12c-2.757 0-5-2.243-5-5s2.243-5 5-5 5 2.243 5 5-2.243 5-5 5z"
			fill="#002558" data-original="#000000" />
		<circle cx="36.845" cy="32.002" r="2" fill="#002558" data-original="#000000" />
		<path
			d="M30.63 44.096c-4.562.688-7.486 4.866-7.608 5.044a1 1 0 001.646 1.135c.025-.036 2.547-3.641 6.26-4.201 1.973-.302 3.971.337 5.933 1.886a1 1 0 001.24-1.57c-2.414-1.906-4.928-2.677-7.471-2.294z"
			fill="#002558" data-original="#000000" />
		<path
			d="M58.399 43.657c-2.099-4.705-2.759-13.611-2.965-18.502-.193-4.619-1.571-8.96-3.983-12.554-4.309-6.421-9.09-9.038-12.312-10.448a25.823 25.823 0 00-20.645 0c-3.791 1.658-8.127 4.074-11.546 9.418-2.292 3.583-3.552 7.9-3.642 12.485-.104 5.27-.595 14.846-2.726 19.777-.678 1.57.037 3.407 1.593 4.095.895.396 2.606.632 4.752.899l.396.05v1.124c0 2.663 2.344 5 5.015 5h2.509v1.694a2.309 2.309 0 002.306 2.306H40.54a2.309 2.309 0 002.306-2.306v-1.694h3.293c2.713 0 5.184-2.383 5.184-5v-1.159a64.995 64.995 0 011.657-.25c1.45-.204 2.819-.396 3.705-.74a3.09 3.09 0 001.755-1.718 3.12 3.12 0 00-.041-2.477zM40.845 56.696a.306.306 0 01-.306.306H17.151a.306.306 0 01-.306-.306v-1.694h24v1.694zm8.477-6.694c0 1.514-1.577 3-3.184 3H12.336c-1.55 0-3.015-1.458-3.015-3V27.945c4.038-.278 19.387-1.802 25.819-9.082 1.453 2.695 4.954 8.311 9.565 9.765 1.561.49 3.107.473 4.615-.057v21.431zm7.267-4.628c-.116.284-.34.502-.629.614-.669.26-1.986.444-3.26.623a91.57 91.57 0 00-1.379.202V27.002a.999.999 0 00-1.509-.861c-1.484.878-2.957 1.066-4.503.58-5.15-1.621-9.039-10.048-9.078-10.133a1.001 1.001 0 00-1.74-.144c-5.79 8.608-26.008 9.551-26.212 9.56a1 1 0 00-.958.999v19.861l-.148-.019c-1.391-.174-3.493-.436-4.189-.744a1.111 1.111 0 01-.566-1.473C4.684 39.38 5.2 29.511 5.307 24.095c.083-4.217 1.233-8.175 3.327-11.446 3.13-4.894 7.146-7.126 10.662-8.664a23.819 23.819 0 0119.04 0c2.993 1.31 7.437 3.744 11.454 9.731 2.206 3.287 3.467 7.271 3.646 11.522.26 6.147 1.014 14.475 3.137 19.232.129.293.135.615.016.904z"
			fill="#002558" data-original="#000000" />
	</g>
</svg>