<?xml version="1.0" encoding="iso-8859-1"?>
<!-- Generator: Adobe Illustrator 19.0.0, SVG Export Plug-In . SVG Version: 6.00 Build 0)  -->
<svg version="1.1" id="Capa_1" xmlns="http://www.w3.org/2000/svg" xmlns:xlink="http://www.w3.org/1999/xlink" x="0px"
	y="0px" fill="white" viewBox="0 0 464 464" style="enable-background:new 0 0 464 464;" xml:space="preserve">
	<g>
		<g>
			<rect x="232" y="96" width="64" height="16" />
		</g>
	</g>
	<g>
		<g>
			<rect x="264" y="128" width="64" height="16" />
		</g>
	</g>
	<g>
		<g>
			<polygon points="218.344,50.344 168,100.688 157.656,90.344 146.344,101.656 168,123.312 229.656,61.656 		" />
		</g>
	</g>
	<g>
		<g>
			<rect x="264" y="224" width="32" height="16" />
		</g>
	</g>
	<g>
		<g>
			<rect x="288" y="256" width="40" height="16" />
		</g>
	</g>
	<g>
		<g>
			<rect x="232" y="352" width="64" height="16" />
		</g>
	</g>
	<g>
		<g>
			<rect x="232" y="384" width="40" height="16" />
		</g>
	</g>
	<g>
		<g>
			<rect x="288" y="384" width="40" height="16" />
		</g>
	</g>
	<g>
		<g>
			<rect x="232" y="256" width="40" height="16" />
		</g>
	</g>
	<g>
		<g>
			<rect x="232" y="128" width="16" height="16" />
		</g>
	</g>
	<g>
		<g>
			<rect x="232" y="224" width="16" height="16" />
		</g>
	</g>
	<g>
		<g>
			<path d="M396.288,64.976L335,3.688L331.312,0H64v464h336V68.688L396.288,64.976z M336,27.312L372.688,64H336V27.312z M384,448H80
			V16h240v64h64V448z" />
		</g>
	</g>
	<g>
		<g>
			<path d="M128,192v80h80v-80H128z M192,256h-48v-48h48V256z" />
		</g>
	</g>
	<g>
		<g>
			<path d="M128,320v80h80v-80H128z M192,384h-48v-48h48V384z" />
		</g>
	</g>
	<g>
		<g>
			<polygon points="192,112 192,128 144,128 144,80 176,80 176,64 128,64 128,144 208,144 208,112 		" />
		</g>
	</g>
</svg>