<svg id="Capa_1" enable-background="new 0 0 510 510" height="512" viewBox="0 0 510 510" width="512" xmlns="http://www.w3.org/2000/svg" fill="#FFF"><g><path d="m143 112h-17v-17c0-8.284-6.716-15-15-15s-15 6.716-15 15v17h-17c-8.284 0-15 6.716-15 15s6.716 15 15 15h17v17c0 8.284 6.716 15 15 15s15-6.716 15-15v-17h17c8.284 0 15-6.716 15-15s-6.716-15-15-15z"/><path d="m319 214h112c8.284 0 15-6.716 15-15s-6.716-15-15-15h-112c-8.284 0-15 6.716-15 15s6.716 15 15 15z"/><path d="m319 278h112c8.284 0 15-6.716 15-15s-6.716-15-15-15h-112c-8.284 0-15 6.716-15 15s6.716 15 15 15z"/><path d="m495 32h-289.423l-18.371-25.719c-2.815-3.942-7.361-6.281-12.206-6.281h-160c-8.284 0-15 6.716-15 15v480c0 8.284 6.716 15 15 15h480c8.284 0 15-6.716 15-15 0-43.949 0-396.765 0-448 0-8.284-6.716-15-15-15zm-205.48 448h-195.52v-31.48c0-87.158 105.763-130.241 166.903-69.134 18.453 18.454 28.616 43.006 28.616 69.134v31.48zm-139.139-200.619c0-22.817 18.563-41.381 41.381-41.381s41.381 18.563 41.381 41.381c0 22.764-18.509 41.379-41.383 41.379-22.808 0-41.379-18.555-41.379-41.379zm329.619 200.619h-160.48v-31.48c0-53.248-32.466-98.602-78.207-117.832 46.092-44.529 14.293-122.688-49.551-122.688-63.733 0-95.735 78.162-49.498 122.739-45.938 19.378-78.264 64.874-78.264 117.781v31.48h-34v-450h137.28l75.514 105.719c2.815 3.942 7.361 6.281 12.206 6.281h225zm0-368h-217.28l-35.714-50h252.994z"/></g></svg>